# Blender v2.83.0 OBJ File: 'bedroom_floor.blend'
# www.blender.org
mtllib bedroom_floor.mtl
o bedroom_Cube.002
v 3.000000 0.224740 -2.000000
v -3.000000 0.500000 2.000000
v 3.000000 0.224740 2.000000
v -3.000000 0.500000 -2.000000
v -3.000000 0.224740 -2.000000
v 3.000000 0.500000 2.000000
v -3.000000 0.224740 2.000000
v 3.000000 0.500000 -2.000000
v -2.767912 0.371939 -2.021913
v 1.146833 0.371939 -2.021913
v -2.767912 3.932468 -2.021913
v 1.146833 3.932468 -2.021913
v -3.275010 0.271651 -0.121818
v 2.683656 0.271651 -0.121818
v -3.275010 0.471651 -0.121818
v 2.683656 0.471651 -0.121818
v -2.979886 0.271651 0.523491
v 2.978781 0.271651 0.523491
v -2.979886 0.471651 0.523491
v 2.978781 0.471651 0.523491
v -3.063298 0.271651 1.158447
v 2.895368 0.271651 1.158447
v -3.063298 0.471651 1.158447
v 2.895368 0.471651 1.158447
v -3.165493 0.271651 1.718174
v 2.793174 0.271651 1.718174
v -3.165493 0.471651 1.718174
v 2.793174 0.471651 1.718174
v -2.909099 0.271651 -0.761868
v 3.049567 0.271651 -0.761868
v -2.909099 0.471651 -0.761868
v 3.049567 0.471651 -0.761868
v 2.861260 0.471651 -1.355457
v -3.097407 0.471651 -1.355457
v 2.861260 0.271651 -1.355457
v -3.097407 0.271651 -1.355457
v -3.097407 0.271651 -1.958144
v 2.861260 0.271651 -1.958144
v -3.097407 0.471651 -1.958144
v 2.861260 0.471651 -1.958144
v -1.425212 0.371939 -2.021913
v -1.425212 3.932468 -2.021913
v -0.230147 0.371939 -2.021913
v -0.230147 3.932468 -2.021913
v -2.767912 3.066239 -2.021913
v 1.146833 3.066239 -2.021913
v -1.425212 3.066239 -2.021913
v -0.230147 3.066239 -2.021913
v -2.767912 1.448151 -2.021913
v 1.146833 1.448151 -2.021913
v -1.425212 1.448151 -2.021913
v -0.230147 1.448151 -2.021913
v 3.000000 0.224740 -2.000000
v -3.000000 0.500000 2.000000
v 3.000000 0.224740 2.000000
v -3.000000 0.500000 -2.000000
v -3.000000 0.224740 -2.000000
v 3.000000 0.500000 2.000000
v -3.000000 0.224740 2.000000
v 3.000000 0.500000 -2.000000
v -2.767912 0.371939 -2.021913
v 1.146833 0.371939 -2.021913
v -2.767912 3.932468 -2.021913
v 1.146833 3.932468 -2.021913
v -3.275010 0.271651 -0.121818
v 2.683656 0.271651 -0.121818
v -3.275010 0.471651 -0.121818
v 2.683656 0.471651 -0.121818
v -2.979886 0.271651 0.523491
v 2.978781 0.271651 0.523491
v -2.979886 0.471651 0.523491
v 2.978781 0.471651 0.523491
v -3.063298 0.271651 1.158447
v 2.895368 0.271651 1.158447
v -3.063298 0.471651 1.158447
v 2.895368 0.471651 1.158447
v -3.165493 0.271651 1.718174
v 2.793174 0.271651 1.718174
v -3.165493 0.471651 1.718174
v 2.793174 0.471651 1.718174
v -2.909099 0.271651 -0.761868
v 3.049567 0.271651 -0.761868
v -2.909099 0.471651 -0.761868
v 3.049567 0.471651 -0.761868
v 2.861260 0.471651 -1.355457
v -3.097407 0.471651 -1.355457
v 2.861260 0.271651 -1.355457
v -3.097407 0.271651 -1.355457
v -3.097407 0.271651 -1.958144
v 2.861260 0.271651 -1.958144
v -3.097407 0.471651 -1.958144
v 2.861260 0.471651 -1.958144
v -1.425212 0.371939 -2.021913
v -1.425212 3.932468 -2.021913
v -0.230147 0.371939 -2.021913
v -0.230147 3.932468 -2.021913
v -2.767912 3.066239 -2.021913
v 1.146833 3.066239 -2.021913
v -1.425212 3.066239 -2.021913
v -0.230147 3.066239 -2.021913
v -2.767912 1.448151 -2.021913
v 1.146833 1.448151 -2.021913
v -1.425212 1.448151 -2.021913
v -0.230147 1.448151 -2.021913
vt 0.472656 0.054688
vt 0.097656 0.304688
vt 0.097656 0.054688
vt 0.296875 0.691406
vt 0.046875 0.316406
vt 0.296875 0.316406
vt 0.370576 0.566406
vt 0.316406 0.479845
vt 0.370576 0.479845
vt 0.457031 0.023438
vt 0.085938 0.035156
vt 0.085938 0.023438
vt 0.457031 0.023438
vt 0.085938 0.035156
vt 0.085938 0.023438
vt 0.460938 0.023438
vt 0.085938 0.035156
vt 0.085938 0.023438
vt 0.457031 0.023438
vt 0.085938 0.035156
vt 0.085938 0.023438
vt 0.457031 0.023438
vt 0.085938 0.035156
vt 0.085938 0.023438
vt 0.468750 0.023438
vt 0.085938 0.035156
vt 0.085938 0.023438
vt 0.457031 0.023438
vt 0.085938 0.035156
vt 0.085938 0.023438
vt 0.370576 0.404719
vt 0.316406 0.320312
vt 0.370576 0.320312
vt 0.316406 0.404719
vt 0.471762 0.479845
vt 0.471762 0.404719
vt 0.471762 0.320312
vt 0.471762 0.566406
vt 0.539062 0.566406
vt 0.539062 0.479845
vt 0.539062 0.404719
vt 0.539062 0.320312
vt 0.097656 0.304688
vt 0.472656 0.054688
vt 0.097656 0.054688
vt 0.046875 0.316406
vt 0.296875 0.691406
vt 0.296875 0.316406
vt 0.316406 0.479845
vt 0.370576 0.566406
vt 0.370576 0.479845
vt 0.085938 0.035156
vt 0.457031 0.023438
vt 0.085938 0.023438
vt 0.085938 0.035156
vt 0.457031 0.023438
vt 0.085938 0.023438
vt 0.085938 0.035156
vt 0.460938 0.023438
vt 0.085938 0.023438
vt 0.085938 0.035156
vt 0.457031 0.023438
vt 0.085938 0.023438
vt 0.085938 0.035156
vt 0.457031 0.023438
vt 0.085938 0.023438
vt 0.085938 0.035156
vt 0.468750 0.023438
vt 0.085938 0.023438
vt 0.085938 0.035156
vt 0.457031 0.023438
vt 0.085938 0.023438
vt 0.316406 0.320312
vt 0.370576 0.404719
vt 0.370576 0.320312
vt 0.316406 0.404719
vt 0.471762 0.479845
vt 0.471762 0.404719
vt 0.471762 0.320312
vt 0.471762 0.566406
vt 0.539062 0.479845
vt 0.539062 0.566406
vt 0.539062 0.404719
vt 0.539062 0.320312
vt 0.472656 0.304688
vt 0.046875 0.691406
vt 0.316406 0.566406
vt 0.457031 0.035156
vt 0.457031 0.035156
vt 0.460938 0.035156
vt 0.457031 0.035156
vt 0.457031 0.035156
vt 0.468750 0.035156
vt 0.457031 0.035156
vt 0.472656 0.304688
vt 0.046875 0.691406
vt 0.316406 0.566406
vt 0.457031 0.035156
vt 0.457031 0.035156
vt 0.460938 0.035156
vt 0.457031 0.035156
vt 0.457031 0.035156
vt 0.468750 0.035156
vt 0.457031 0.035156
vn 0.0000 1.0000 0.0000
vn 0.0000 0.0000 1.0000
vn 0.0000 -1.0000 0.0000
vn 0.0000 0.0000 -1.0000
usemtl None
s off
f 5/1/1 3/2/1 1/3/1
f 4/4/1 6/5/1 8/6/1
f 46/7/2 44/8/2 48/9/2
f 14/10/2 15/11/2 13/12/2
f 18/13/2 19/14/2 17/15/2
f 22/16/2 23/17/2 21/18/2
f 26/19/2 27/20/2 25/21/2
f 30/22/2 31/23/2 29/24/2
f 35/25/2 34/26/2 36/27/2
f 38/28/2 39/29/2 37/30/2
f 47/31/2 11/32/2 45/33/2
f 48/9/2 42/34/2 47/31/2
f 52/35/2 47/31/2 51/36/2
f 51/36/2 45/33/2 49/37/2
f 50/38/2 48/9/2 52/35/2
f 10/39/2 52/35/2 43/40/2
f 41/41/2 49/37/2 9/42/2
f 43/40/2 51/36/2 41/41/2
f 55/43/3 57/44/3 53/45/3
f 58/46/3 56/47/3 60/48/3
f 96/49/4 98/50/4 100/51/4
f 67/52/4 66/53/4 65/54/4
f 71/55/4 70/56/4 69/57/4
f 75/58/4 74/59/4 73/60/4
f 79/61/4 78/62/4 77/63/4
f 83/64/4 82/65/4 81/66/4
f 86/67/4 87/68/4 88/69/4
f 91/70/4 90/71/4 89/72/4
f 63/73/4 99/74/4 97/75/4
f 94/76/4 100/51/4 99/74/4
f 99/74/4 104/77/4 103/78/4
f 97/75/4 103/78/4 101/79/4
f 100/51/4 102/80/4 104/77/4
f 95/81/4 102/80/4 62/82/4
f 101/79/4 93/83/4 61/84/4
f 103/78/4 95/81/4 93/83/4
f 5/1/1 7/85/1 3/2/1
f 4/4/1 2/86/1 6/5/1
f 46/7/2 12/87/2 44/8/2
f 14/10/2 16/88/2 15/11/2
f 18/13/2 20/89/2 19/14/2
f 22/16/2 24/90/2 23/17/2
f 26/19/2 28/91/2 27/20/2
f 30/22/2 32/92/2 31/23/2
f 35/25/2 33/93/2 34/26/2
f 38/28/2 40/94/2 39/29/2
f 47/31/2 42/34/2 11/32/2
f 48/9/2 44/8/2 42/34/2
f 52/35/2 48/9/2 47/31/2
f 51/36/2 47/31/2 45/33/2
f 50/38/2 46/7/2 48/9/2
f 10/39/2 50/38/2 52/35/2
f 41/41/2 51/36/2 49/37/2
f 43/40/2 52/35/2 51/36/2
f 55/43/3 59/95/3 57/44/3
f 58/46/3 54/96/3 56/47/3
f 96/49/4 64/97/4 98/50/4
f 67/52/4 68/98/4 66/53/4
f 71/55/4 72/99/4 70/56/4
f 75/58/4 76/100/4 74/59/4
f 79/61/4 80/101/4 78/62/4
f 83/64/4 84/102/4 82/65/4
f 86/67/4 85/103/4 87/68/4
f 91/70/4 92/104/4 90/71/4
f 63/73/4 94/76/4 99/74/4
f 94/76/4 96/49/4 100/51/4
f 99/74/4 100/51/4 104/77/4
f 97/75/4 99/74/4 103/78/4
f 100/51/4 98/50/4 102/80/4
f 95/81/4 104/77/4 102/80/4
f 101/79/4 103/78/4 93/83/4
f 103/78/4 104/77/4 95/81/4
