# Blender v2.83.0 OBJ File: 'generic_green.blend'
# www.blender.org
mtllib 3x3_green_plat.mtl
o Plane
v -1.500000 -0.003514 1.500000
v 1.500000 -0.003514 1.500000
v -1.500000 -0.003514 -1.500000
v 1.500000 -0.003514 -1.500000
v -1.500000 0.058197 1.500000
v 1.500000 0.058197 1.500000
v -1.500000 0.058197 -1.500000
v 1.500000 0.058197 -1.500000
v -1.500000 -0.096855 1.500000
v 1.500000 -0.096855 1.500000
v -1.500000 -0.096855 -1.500000
v 1.500000 -0.096855 -1.500000
v -1.500000 -0.003514 1.500000
v 1.500000 -0.003514 1.500000
v -1.500000 -0.003514 -1.500000
v 1.500000 -0.003514 -1.500000
v -1.500000 0.058197 1.500000
v 1.500000 0.058197 1.500000
v -1.500000 0.058197 -1.500000
v 1.500000 0.058197 -1.500000
v -1.500000 -0.096855 1.500000
v 1.500000 -0.096855 1.500000
v -1.500000 -0.096855 -1.500000
v 1.500000 -0.096855 -1.500000
vt 0.118932 0.494323
vt 0.493807 0.119447
vt 0.493808 0.494323
vt 0.893147 0.488050
vt 0.518272 0.113175
vt 0.893147 0.113175
vt 0.114877 0.510950
vt 0.489752 0.885826
vt 0.114877 0.885826
vt 0.493807 0.119447
vt 0.118932 0.494323
vt 0.493808 0.494323
vt 0.518272 0.113175
vt 0.893147 0.488050
vt 0.893147 0.113175
vt 0.489752 0.885826
vt 0.114877 0.510950
vt 0.114877 0.885826
vt 0.118932 0.119447
vt 0.118932 0.119447
vt 0.518272 0.488050
vt 0.518272 0.488050
vt 0.489752 0.510950
vt 0.489752 0.510950
vn 0.0000 1.0000 0.0000
vn 0.0000 -1.0000 0.0000
vn 0.0000 0.0000 1.0000
usemtl None
s off
f 2/1/1 3/2/1 1/3/1
f 6/4/1 7/5/1 5/6/1
f 10/7/1 11/8/1 9/9/1
f 15/10/2 14/11/2 13/12/2
f 19/13/2 18/14/2 17/15/2
f 23/16/2 22/17/2 21/18/2
f 1/3/3 15/10/3 13/12/3
f 2/1/3 13/12/3 14/11/3
f 4/19/3 14/11/3 16/20/3
f 3/2/3 16/20/3 15/10/3
f 5/6/3 19/13/3 17/15/3
f 6/4/3 17/15/3 18/14/3
f 8/21/3 18/14/3 20/22/3
f 7/5/3 20/22/3 19/13/3
f 9/9/3 23/16/3 21/18/3
f 10/7/3 21/18/3 22/17/3
f 12/23/3 22/17/3 24/24/3
f 11/8/3 24/24/3 23/16/3
f 2/1/1 4/19/1 3/2/1
f 6/4/1 8/21/1 7/5/1
f 10/7/1 12/23/1 11/8/1
f 15/10/2 16/20/2 14/11/2
f 19/13/2 20/22/2 18/14/2
f 23/16/2 24/24/2 22/17/2
f 1/3/3 3/2/3 15/10/3
f 2/1/3 1/3/3 13/12/3
f 4/19/3 2/1/3 14/11/3
f 3/2/3 4/19/3 16/20/3
f 5/6/3 7/5/3 19/13/3
f 6/4/3 5/6/3 17/15/3
f 8/21/3 6/4/3 18/14/3
f 7/5/3 8/21/3 20/22/3
f 9/9/3 11/8/3 23/16/3
f 10/7/3 9/9/3 21/18/3
f 12/23/3 10/7/3 22/17/3
f 11/8/3 12/23/3 24/24/3
