# Blender v2.83.0 OBJ File: 'park_platform.blend'
# www.blender.org
mtllib park_platform_collider_mesh.mtl
o Circle.001
v 0.010878 0.063027 -3.189050
v -0.652099 0.063027 -3.372570
v -1.217145 0.063027 -3.242936
v -1.667386 0.063027 -2.857177
v -2.047695 0.063027 -2.354761
v -2.591559 0.063027 -1.757963
v -3.055721 0.063027 -1.119552
v -3.114587 0.063027 -0.492993
v -3.074282 0.063027 0.126600
v -3.159580 0.063027 0.745298
v -3.099839 0.063027 1.326606
v -2.782717 0.063027 1.791281
v -2.306842 0.063027 2.231380
v -1.862944 0.063027 2.750517
v -1.365075 0.063027 3.177244
v -0.705176 0.063027 3.386446
v 0.126699 0.063027 3.581919
v 0.930227 0.063027 3.617883
v 1.467047 0.063027 3.314360
v 1.889006 0.063027 2.855775
v 2.383790 0.063027 2.408917
v 2.780286 0.063027 1.919449
v 2.998589 0.063027 1.410813
v 3.135942 0.063027 0.851040
v 3.198583 0.063027 0.211548
v 3.119037 0.063027 -0.518209
v 2.989022 0.063027 -1.273337
v 2.813101 0.063027 -1.849113
v 2.467907 0.063027 -2.150591
v 1.982258 0.063027 -2.316996
v 1.387325 0.063027 -2.509813
v 0.717236 0.063027 -2.840984
v 0.717236 -0.041007 -2.840984
v 1.387325 -0.041007 -2.509813
v 1.982258 -0.041007 -2.316996
v 2.467907 -0.041007 -2.150591
v 2.813101 -0.041007 -1.849113
v 2.989022 -0.041007 -1.273337
v 3.119037 -0.041007 -0.518209
v 3.198583 -0.041007 0.211548
v 3.135942 -0.041007 0.851040
v 2.998589 -0.041007 1.410813
v 2.780286 -0.041007 1.919449
v 2.383790 -0.041007 2.408917
v 1.889006 -0.041007 2.855775
v 1.467047 -0.041007 3.314360
v 0.930227 -0.041007 3.617883
v 0.126699 -0.041007 3.581919
v -0.705176 -0.041007 3.386446
v -1.365075 -0.041007 3.177244
v -1.862944 -0.041007 2.750517
v -2.306842 -0.041007 2.231380
v -2.782717 -0.041007 1.791281
v -3.099839 -0.041007 1.326606
v -3.159580 -0.041007 0.745298
v -3.074282 -0.041007 0.126600
v -3.114587 -0.041007 -0.492993
v -3.055721 -0.041007 -1.119552
v -2.591559 -0.041007 -1.757963
v -2.047695 -0.041007 -2.354761
v -1.667386 -0.041007 -2.857177
v -1.217145 -0.041007 -3.242936
v 0.010878 -0.041007 -3.189050
v -0.652099 -0.041007 -3.372570
v 2.103069 0.045422 -1.437981
v 1.823342 0.045422 -0.271040
v -0.510541 0.045422 -0.830495
v -0.230814 0.045422 -1.997436
v -0.510541 0.725301 -0.830495
v 1.823342 0.725301 -0.271040
v -0.230814 0.725301 -1.997436
v 2.103069 0.725301 -1.437981
v 0.010878 0.063027 -3.189050
v -0.652099 0.063027 -3.372570
v -1.217145 0.063027 -3.242936
v -1.667386 0.063027 -2.857177
v -2.047695 0.063027 -2.354761
v -2.591559 0.063027 -1.757963
v -3.055721 0.063027 -1.119552
v -3.114587 0.063027 -0.492993
v -3.074282 0.063027 0.126600
v -3.159580 0.063027 0.745298
v -3.099839 0.063027 1.326606
v -2.782717 0.063027 1.791281
v -2.306842 0.063027 2.231380
v -1.862944 0.063027 2.750517
v -1.365075 0.063027 3.177244
v -0.705176 0.063027 3.386446
v 0.126699 0.063027 3.581919
v 0.930227 0.063027 3.617883
v 1.467047 0.063027 3.314360
v 1.889006 0.063027 2.855775
v 2.383790 0.063027 2.408917
v 2.780286 0.063027 1.919449
v 2.998589 0.063027 1.410813
v 3.135942 0.063027 0.851040
v 3.198583 0.063027 0.211548
v 3.119037 0.063027 -0.518209
v 2.989022 0.063027 -1.273337
v 2.813101 0.063027 -1.849113
v 2.467907 0.063027 -2.150591
v 1.982258 0.063027 -2.316996
v 1.387325 0.063027 -2.509813
v 0.717236 0.063027 -2.840984
v 0.717236 -0.041007 -2.840984
v 1.387325 -0.041007 -2.509813
v 1.982258 -0.041007 -2.316996
v 2.467907 -0.041007 -2.150591
v 2.813101 -0.041007 -1.849113
v 2.989022 -0.041007 -1.273337
v 3.119037 -0.041007 -0.518209
v 3.198583 -0.041007 0.211548
v 3.135942 -0.041007 0.851040
v 2.998589 -0.041007 1.410813
v 2.780286 -0.041007 1.919449
v 2.383790 -0.041007 2.408917
v 1.889006 -0.041007 2.855775
v 1.467047 -0.041007 3.314360
v 0.930227 -0.041007 3.617883
v 0.126699 -0.041007 3.581919
v -0.705176 -0.041007 3.386446
v -1.365075 -0.041007 3.177244
v -1.862944 -0.041007 2.750517
v -2.306842 -0.041007 2.231380
v -2.782717 -0.041007 1.791281
v -3.099839 -0.041007 1.326606
v -3.159580 -0.041007 0.745298
v -3.074282 -0.041007 0.126600
v -3.114587 -0.041007 -0.492993
v -3.055721 -0.041007 -1.119552
v -2.591559 -0.041007 -1.757963
v -2.047695 -0.041007 -2.354761
v -1.667386 -0.041007 -2.857177
v -1.217145 -0.041007 -3.242936
v 0.010878 -0.041007 -3.189050
v -0.652099 -0.041007 -3.372570
v 2.103069 0.045422 -1.437981
v 1.823342 0.045422 -0.271040
v -0.510541 0.045422 -0.830495
v -0.230814 0.045422 -1.997436
v -0.510541 0.725301 -0.830495
v 1.823342 0.725301 -0.271040
v -0.230814 0.725301 -1.997436
v 2.103069 0.725301 -1.437981
vt 0.906738 0.382812
vt 0.912109 0.339844
vt 0.909180 0.291016
vt 0.906738 0.244141
vt 0.910156 0.205078
vt 0.912109 0.173340
vt 0.903320 0.145996
vt 0.874512 0.122070
vt 0.833984 0.096191
vt 0.793945 0.073730
vt 0.755859 0.062012
vt 0.720215 0.056152
vt 0.685547 0.056152
vt 0.647461 0.067383
vt 0.609863 0.084961
vt 0.573242 0.098145
vt 0.542480 0.121582
vt 0.525391 0.168457
vt 0.516113 0.221191
vt 0.512207 0.264160
vt 0.524902 0.303223
vt 0.543945 0.341309
vt 0.557617 0.379395
vt 0.576660 0.409180
vt 0.608398 0.426758
vt 0.645996 0.437012
vt 0.681152 0.454102
vt 0.718262 0.466309
vt 0.766602 0.455078
vt 0.813965 0.437988
vt 0.852051 0.428711
vt 0.885254 0.412109
vt 0.722656 0.585938
vt 0.722656 0.661133
vt 0.722656 0.661133
vt 0.722656 0.585938
vt 0.572754 0.585938
vt 0.572754 0.661133
vt 0.572754 0.585938
vt 0.572754 0.661133
vt 0.906738 0.382812
vt 0.885254 0.412109
vt 0.852051 0.428711
vt 0.813965 0.437988
vt 0.766602 0.455078
vt 0.718262 0.466309
vt 0.681152 0.454102
vt 0.645996 0.437012
vt 0.608398 0.426758
vt 0.576660 0.409180
vt 0.557617 0.379395
vt 0.543945 0.341309
vt 0.524902 0.303223
vt 0.512207 0.264160
vt 0.516113 0.221191
vt 0.525391 0.168457
vt 0.542480 0.121582
vt 0.573242 0.098145
vt 0.609863 0.084961
vt 0.647461 0.067383
vt 0.685547 0.056152
vt 0.720215 0.056152
vt 0.755859 0.062012
vt 0.793945 0.073730
vt 0.833984 0.096191
vt 0.874512 0.122070
vt 0.903320 0.145996
vt 0.912109 0.173340
vt 0.910156 0.205078
vt 0.906738 0.244141
vt 0.909180 0.291016
vt 0.912109 0.339844
vt 0.906738 0.382812
vt 0.885254 0.412109
vt 0.852051 0.428711
vt 0.813965 0.437988
vt 0.766602 0.455078
vt 0.718262 0.466309
vt 0.681152 0.454102
vt 0.645996 0.437012
vt 0.608398 0.426758
vt 0.576660 0.409180
vt 0.557617 0.379395
vt 0.543945 0.341309
vt 0.524902 0.303223
vt 0.512207 0.264160
vt 0.516113 0.221191
vt 0.525391 0.168457
vt 0.542480 0.121582
vt 0.573242 0.098145
vt 0.609863 0.084961
vt 0.647461 0.067383
vt 0.685547 0.056152
vt 0.720215 0.056152
vt 0.755859 0.062012
vt 0.793945 0.073730
vt 0.833984 0.096191
vt 0.874512 0.122070
vt 0.903320 0.145996
vt 0.912109 0.173340
vt 0.910156 0.205078
vt 0.906738 0.244141
vt 0.909180 0.291016
vt 0.912109 0.339844
vt 0.722656 0.585938
vt 0.722656 0.585938
vt 0.722656 0.661133
vt 0.722656 0.661133
vt 0.572754 0.585938
vt 0.572754 0.661133
vt 0.572754 0.585938
vt 0.572754 0.661133
vt 0.906738 0.382812
vt 0.912109 0.339844
vt 0.909180 0.291016
vt 0.906738 0.244141
vt 0.910156 0.205078
vt 0.912109 0.173340
vt 0.903320 0.145996
vt 0.874512 0.122070
vt 0.833984 0.096191
vt 0.793945 0.073730
vt 0.755859 0.062012
vt 0.720215 0.056152
vt 0.685547 0.056152
vt 0.647461 0.067383
vt 0.609863 0.084961
vt 0.573242 0.098145
vt 0.542480 0.121582
vt 0.525391 0.168457
vt 0.516113 0.221191
vt 0.512207 0.264160
vt 0.524902 0.303223
vt 0.543945 0.341309
vt 0.557617 0.379395
vt 0.576660 0.409180
vt 0.608398 0.426758
vt 0.645996 0.437012
vt 0.681152 0.454102
vt 0.718262 0.466309
vt 0.766602 0.455078
vt 0.813965 0.437988
vt 0.852051 0.428711
vt 0.885254 0.412109
vn 0.0000 -1.0000 0.0000
vn -0.9725 0.0000 -0.2331
vn 0.0000 1.0000 -0.0000
vn -0.2331 0.0000 0.9725
vn 0.9725 0.0000 0.2331
vn 0.2331 0.0000 -0.9725
vn 0.7391 0.0000 0.6736
vn -0.4420 0.0000 0.8970
vn -0.7359 0.0000 -0.6771
vn 0.8088 0.0000 0.5881
vn -0.6703 0.0000 -0.7421
vn 0.9956 0.0000 0.0935
vn -0.7770 0.0000 -0.6294
vn 0.9979 0.0000 -0.0649
vn -0.9189 0.0000 -0.3944
vn 0.9906 0.0000 0.1366
vn -0.9712 0.0000 -0.2383
vn 0.9948 0.0000 -0.1022
vn -0.9952 0.0000 -0.0975
vn 0.8260 0.0000 -0.5637
vn -0.9941 0.0000 0.1084
vn 0.6790 0.0000 -0.7342
vn -0.9855 0.0000 0.1697
vn 0.7600 0.0000 -0.6499
vn -0.9564 0.0000 0.2922
vn 0.6508 0.0000 -0.7593
vn -0.2668 0.0000 0.9638
vn -0.6578 0.0000 0.7532
vn 0.3022 0.0000 -0.9532
vn 0.2236 0.0000 0.9747
vn -0.3241 0.0000 0.9460
vn 0.2287 0.0000 -0.9735
vn 0.6506 0.0000 0.7594
vn -0.3083 0.0000 0.9513
vn 0.0447 0.0000 -0.9990
vn 0.7973 0.0000 0.6035
vn -0.4431 0.0000 0.8965
vn -0.4922 0.0000 -0.8705
vn -0.7391 0.0000 -0.6736
vn 0.4420 0.0000 -0.8970
vn 0.7359 0.0000 0.6771
vn -0.8088 0.0000 -0.5881
vn 0.6703 0.0000 0.7421
vn -0.9956 0.0000 -0.0935
vn 0.7770 0.0000 0.6294
vn -0.9979 0.0000 0.0649
vn 0.9189 0.0000 0.3944
vn -0.9906 0.0000 -0.1366
vn 0.9712 0.0000 0.2383
vn -0.9948 0.0000 0.1022
vn 0.9952 0.0000 0.0975
vn -0.8260 0.0000 0.5637
vn 0.9941 0.0000 -0.1084
vn -0.6790 0.0000 0.7342
vn 0.9855 0.0000 -0.1697
vn -0.7600 0.0000 0.6499
vn 0.9564 0.0000 -0.2922
vn -0.6508 0.0000 0.7593
vn 0.2668 0.0000 -0.9638
vn 0.6578 0.0000 -0.7532
vn -0.3022 0.0000 0.9532
vn -0.2236 0.0000 -0.9747
vn 0.3241 0.0000 -0.9460
vn -0.2287 0.0000 0.9735
vn -0.6506 0.0000 -0.7594
vn 0.3083 0.0000 -0.9513
vn -0.0447 0.0000 0.9990
vn -0.7973 0.0000 -0.6035
vn 0.4431 0.0000 -0.8965
vn 0.4922 0.0000 0.8705
usemtl None
s off
f 2/1/1 1/2/1 32/3/1 31/4/1 30/5/1 29/6/1 28/7/1 27/8/1 26/9/1 25/10/1 24/11/1 23/12/1 22/13/1 21/14/1 20/15/1 19/16/1 18/17/1 17/18/1 16/19/1 15/20/1 14/21/1 13/22/1 12/23/1 11/24/1 10/25/1 9/26/1 8/27/1 7/28/1 6/29/1 5/30/1 4/31/1 3/32/1
f 70/33/2 72/34/2 65/35/2 66/36/2
f 67/37/3 66/36/3 65/35/3 68/38/3
f 69/39/1 71/40/1 72/34/1 70/33/1
f 72/34/4 71/40/4 68/38/4 65/35/4
f 71/40/5 69/39/5 67/37/5 68/38/5
f 69/39/6 70/33/6 66/36/6 67/37/6
f 64/41/3 62/42/3 61/43/3 60/44/3 59/45/3 58/46/3 57/47/3 56/48/3 55/49/3 54/50/3 53/51/3 52/52/3 51/53/3 50/54/3 49/55/3 48/56/3 47/57/3 46/58/3 45/59/3 44/60/3 43/61/3 42/62/3 41/63/3 40/64/3 39/65/3 38/66/3 37/67/3 36/68/3 35/69/3 34/70/3 33/71/3 63/72/3
f 5/30/7 6/29/7 59/45/7 60/44/7
f 32/3/8 1/2/8 63/72/8 33/71/8
f 19/16/9 20/15/9 45/59/9 46/58/9
f 6/29/10 7/28/10 58/46/10 59/45/10
f 20/15/11 21/14/11 44/60/11 45/59/11
f 7/28/12 8/27/12 57/47/12 58/46/12
f 21/14/13 22/13/13 43/61/13 44/60/13
f 8/27/14 9/26/14 56/48/14 57/47/14
f 22/13/15 23/12/15 42/62/15 43/61/15
f 9/26/16 10/25/16 55/49/16 56/48/16
f 23/12/17 24/11/17 41/63/17 42/62/17
f 10/25/18 11/24/18 54/50/18 55/49/18
f 24/11/19 25/10/19 40/64/19 41/63/19
f 11/24/20 12/23/20 53/51/20 54/50/20
f 25/10/21 26/9/21 39/65/21 40/64/21
f 12/23/22 13/22/22 52/52/22 53/51/22
f 26/9/23 27/8/23 38/66/23 39/65/23
f 13/22/24 14/21/24 51/53/24 52/52/24
f 27/8/25 28/7/25 37/67/25 38/66/25
f 14/21/26 15/20/26 50/54/26 51/53/26
f 1/2/27 2/1/27 64/41/27 63/72/27
f 28/7/28 29/6/28 36/68/28 37/67/28
f 15/20/29 16/19/29 49/55/29 50/54/29
f 2/1/30 3/32/30 62/42/30 64/41/30
f 29/6/31 30/5/31 35/69/31 36/68/31
f 16/19/32 17/18/32 48/56/32 49/55/32
f 3/32/33 4/31/33 61/43/33 62/42/33
f 30/5/34 31/4/34 34/70/34 35/69/34
f 17/18/35 18/17/35 47/57/35 48/56/35
f 4/31/36 5/30/36 60/44/36 61/43/36
f 31/4/37 32/3/37 33/71/37 34/70/37
f 18/17/38 19/16/38 46/58/38 47/57/38
f 74/73/3 75/74/3 76/75/3 77/76/3 78/77/3 79/78/3 80/79/3 81/80/3 82/81/3 83/82/3 84/83/3 85/84/3 86/85/3 87/86/3 88/87/3 89/88/3 90/89/3 91/90/3 92/91/3 93/92/3 94/93/3 95/94/3 96/95/3 97/96/3 98/97/3 99/98/3 100/99/3 101/100/3 102/101/3 103/102/3 104/103/3 73/104/3
f 142/105/5 138/106/5 137/107/5 144/108/5
f 139/109/1 140/110/1 137/107/1 138/106/1
f 141/111/3 142/105/3 144/108/3 143/112/3
f 144/108/6 137/107/6 140/110/6 143/112/6
f 143/112/2 140/110/2 139/109/2 141/111/2
f 141/111/4 139/109/4 138/106/4 142/105/4
f 136/113/1 135/114/1 105/115/1 106/116/1 107/117/1 108/118/1 109/119/1 110/120/1 111/121/1 112/122/1 113/123/1 114/124/1 115/125/1 116/126/1 117/127/1 118/128/1 119/129/1 120/130/1 121/131/1 122/132/1 123/133/1 124/134/1 125/135/1 126/136/1 127/137/1 128/138/1 129/139/1 130/140/1 131/141/1 132/142/1 133/143/1 134/144/1
f 77/76/39 132/142/39 131/141/39 78/77/39
f 104/103/40 105/115/40 135/114/40 73/104/40
f 91/90/41 118/128/41 117/127/41 92/91/41
f 78/77/42 131/141/42 130/140/42 79/78/42
f 92/91/43 117/127/43 116/126/43 93/92/43
f 79/78/44 130/140/44 129/139/44 80/79/44
f 93/92/45 116/126/45 115/125/45 94/93/45
f 80/79/46 129/139/46 128/138/46 81/80/46
f 94/93/47 115/125/47 114/124/47 95/94/47
f 81/80/48 128/138/48 127/137/48 82/81/48
f 95/94/49 114/124/49 113/123/49 96/95/49
f 82/81/50 127/137/50 126/136/50 83/82/50
f 96/95/51 113/123/51 112/122/51 97/96/51
f 83/82/52 126/136/52 125/135/52 84/83/52
f 97/96/53 112/122/53 111/121/53 98/97/53
f 84/83/54 125/135/54 124/134/54 85/84/54
f 98/97/55 111/121/55 110/120/55 99/98/55
f 85/84/56 124/134/56 123/133/56 86/85/56
f 99/98/57 110/120/57 109/119/57 100/99/57
f 86/85/58 123/133/58 122/132/58 87/86/58
f 73/104/59 135/114/59 136/113/59 74/73/59
f 100/99/60 109/119/60 108/118/60 101/100/60
f 87/86/61 122/132/61 121/131/61 88/87/61
f 74/73/62 136/113/62 134/144/62 75/74/62
f 101/100/63 108/118/63 107/117/63 102/101/63
f 88/87/64 121/131/64 120/130/64 89/88/64
f 75/74/65 134/144/65 133/143/65 76/75/65
f 102/101/66 107/117/66 106/116/66 103/102/66
f 89/88/67 120/130/67 119/129/67 90/89/67
f 76/75/68 133/143/68 132/142/68 77/76/68
f 103/102/69 106/116/69 105/115/69 104/103/69
f 90/89/70 119/129/70 118/128/70 91/90/70
