# Blender v2.83.0 OBJ File: ''
# www.blender.org
mtllib puddle_1.mtl
o Circle
v 0.000000 0.000000 -1.496335
v -0.291920 0.000000 -1.467583
v -0.572623 0.000000 -1.382433
v -0.831319 0.000000 -1.244157
v -1.058068 0.000000 -1.058068
v -1.244157 0.000000 -0.831319
v -1.382433 0.000000 -0.572622
v -1.467583 0.000000 -0.291920
v -1.496335 0.000000 0.000000
v -1.467583 0.000000 0.291920
v -1.382433 0.000000 0.572622
v -1.244157 0.000000 0.831319
v -1.058068 0.000000 1.058069
v -0.831319 0.000000 1.244157
v -0.572622 0.000000 1.382433
v -0.291920 0.000000 1.467583
v 0.000001 0.000000 1.496335
v 0.249726 0.000000 1.471178
v 1.468389 0.000000 0.265782
v 1.496335 0.000000 -0.000001
v 1.467583 0.000000 -0.291922
v 1.382432 0.000000 -0.572624
v 1.244156 0.000000 -0.831320
v 1.058067 0.000000 -1.058070
v 0.831317 0.000000 -1.244158
v 0.572621 0.000000 -1.382434
v 0.291918 0.000000 -1.467583
v 0.283161 0.000000 1.585062
v 0.374313 0.000000 1.755595
v 0.496983 0.000000 1.905069
v 0.646456 0.000000 2.027739
v 0.816990 0.000000 2.118891
v 1.002029 0.000000 2.175022
v 1.194463 0.000000 2.193974
v 1.386898 0.000000 2.175021
v 1.571937 0.000000 2.118890
v 1.742470 0.000000 2.027738
v 1.891943 0.000000 1.905069
v 2.014613 0.000000 1.755595
v 2.105765 0.000000 1.585062
v 2.161896 0.000000 1.400022
v 2.180849 0.000000 1.207588
v 2.161895 0.000000 1.015153
v 2.105764 0.000000 0.830114
v 2.014612 0.000000 0.659581
v 1.891942 0.000000 0.510108
v 1.742468 0.000000 0.387438
v 1.571935 0.000000 0.296287
v 0.000000 0.000000 -1.496335
v -0.291920 0.000000 -1.467583
v -0.572623 0.000000 -1.382433
v -0.831319 0.000000 -1.244157
v -1.058068 0.000000 -1.058068
v -1.244157 0.000000 -0.831319
v -1.382433 0.000000 -0.572622
v -1.467583 0.000000 -0.291920
v -1.496335 0.000000 0.000000
v -1.467583 0.000000 0.291920
v -1.382433 0.000000 0.572622
v -1.244157 0.000000 0.831319
v -1.058068 0.000000 1.058069
v -0.831319 0.000000 1.244157
v -0.572622 0.000000 1.382433
v -0.291920 0.000000 1.467583
v 0.000001 0.000000 1.496335
v 0.249726 0.000000 1.471178
v 1.468389 0.000000 0.265782
v 1.496335 0.000000 -0.000001
v 1.467583 0.000000 -0.291922
v 1.382432 0.000000 -0.572624
v 1.244156 0.000000 -0.831320
v 1.058067 0.000000 -1.058070
v 0.831317 0.000000 -1.244158
v 0.572621 0.000000 -1.382434
v 0.291918 0.000000 -1.467583
v 0.283161 0.000000 1.585062
v 0.374313 0.000000 1.755595
v 0.496983 0.000000 1.905069
v 0.646456 0.000000 2.027739
v 0.816990 0.000000 2.118891
v 1.002029 0.000000 2.175022
v 1.194463 0.000000 2.193974
v 1.386898 0.000000 2.175021
v 1.571937 0.000000 2.118890
v 1.742470 0.000000 2.027738
v 1.891943 0.000000 1.905069
v 2.014613 0.000000 1.755595
v 2.105765 0.000000 1.585062
v 2.161896 0.000000 1.400022
v 2.180849 0.000000 1.207588
v 2.161895 0.000000 1.015153
v 2.105764 0.000000 0.830114
v 2.014612 0.000000 0.659581
v 1.891942 0.000000 0.510108
v 1.742468 0.000000 0.387438
v 1.571935 0.000000 0.296287
vt 0.380629 0.027447
vt 0.760850 0.579990
vt 0.375110 0.699312
vt 0.668633 0.969335
vt 0.760850 0.579990
vt 0.375110 0.699312
vt 0.172090 0.198591
vt 0.210479 0.141138
vt 0.259338 0.092278
vt 0.316791 0.053890
vt 0.448399 0.013966
vt 0.517497 0.013966
vt 0.585267 0.027447
vt 0.649105 0.053889
vt 0.706558 0.092278
vt 0.755418 0.141137
vt 0.793806 0.198590
vt 0.820249 0.262428
vt 0.833729 0.330198
vt 0.833729 0.399296
vt 0.820249 0.467066
vt 0.793806 0.530904
vt 0.780796 0.599582
vt 0.806102 0.637455
vt 0.145648 0.262428
vt 0.132168 0.399296
vt 0.132167 0.330199
vt 0.172090 0.530904
vt 0.145648 0.467066
vt 0.259339 0.637216
vt 0.210479 0.588357
vt 0.316791 0.675605
vt 0.369949 0.769760
vt 0.369949 0.724211
vt 0.396266 0.856517
vt 0.378835 0.814435
vt 0.453780 0.926598
vt 0.421572 0.894390
vt 0.533735 0.969335
vt 0.491653 0.951904
vt 0.623959 0.978221
vt 0.578410 0.978221
vt 0.710715 0.951904
vt 0.668633 0.969335
vt 0.780797 0.894390
vt 0.748588 0.926598
vt 0.823533 0.814435
vt 0.806102 0.856517
vt 0.832419 0.724211
vt 0.832420 0.769760
vt 0.823533 0.679537
vt 0.259338 0.092278
vt 0.210479 0.141138
vt 0.172090 0.198591
vt 0.145648 0.262428
vt 0.132167 0.330199
vt 0.132168 0.399296
vt 0.145648 0.467066
vt 0.172090 0.530904
vt 0.210479 0.588357
vt 0.259339 0.637216
vt 0.316791 0.675605
vt 0.369949 0.724211
vt 0.369949 0.769760
vt 0.380629 0.027447
vt 0.316791 0.053890
vt 0.517497 0.013966
vt 0.448399 0.013966
vt 0.649105 0.053889
vt 0.585267 0.027447
vt 0.755418 0.141137
vt 0.706558 0.092278
vt 0.820249 0.262428
vt 0.793806 0.198590
vt 0.833729 0.399296
vt 0.833729 0.330198
vt 0.793806 0.530904
vt 0.820249 0.467066
vt 0.806102 0.637455
vt 0.780796 0.599582
vt 0.378835 0.814435
vt 0.823533 0.679537
vt 0.832420 0.769760
vt 0.832419 0.724211
vt 0.806102 0.856517
vt 0.823533 0.814435
vt 0.748588 0.926598
vt 0.780797 0.894390
vt 0.710715 0.951904
vt 0.578410 0.978221
vt 0.623959 0.978221
vt 0.491653 0.951904
vt 0.533735 0.969335
vt 0.421572 0.894390
vt 0.453780 0.926598
vt 0.396266 0.856517
vn 0.0000 1.0000 0.0000
vn 0.0000 -1.0000 0.0000
usemtl None
s off
f 5/1/1 18/2/1 19/3/1
f 86/4/2 66/5/2 67/6/2
f 1/7/1 2/8/1 19/3/1
f 2/8/1 3/9/1 19/3/1
f 3/9/1 4/10/1 19/3/1
f 4/10/1 5/1/1 19/3/1
f 5/1/1 6/11/1 18/2/1
f 6/11/1 7/12/1 18/2/1
f 7/12/1 8/13/1 18/2/1
f 8/13/1 9/14/1 18/2/1
f 9/14/1 10/15/1 18/2/1
f 10/15/1 11/16/1 18/2/1
f 11/16/1 12/17/1 18/2/1
f 12/17/1 13/18/1 18/2/1
f 13/18/1 14/19/1 18/2/1
f 14/19/1 15/20/1 18/2/1
f 15/20/1 16/21/1 18/2/1
f 16/21/1 17/22/1 18/2/1
f 18/2/1 28/23/1 29/24/1
f 27/25/1 1/7/1 19/3/1
f 25/26/1 26/27/1 19/3/1
f 26/27/1 27/25/1 19/3/1
f 23/28/1 24/29/1 19/3/1
f 24/29/1 25/26/1 19/3/1
f 21/30/1 22/31/1 19/3/1
f 22/31/1 23/28/1 19/3/1
f 19/3/1 20/32/1 21/30/1
f 47/33/1 48/34/1 19/3/1
f 45/35/1 46/36/1 19/3/1
f 46/36/1 47/33/1 19/3/1
f 43/37/1 44/38/1 19/3/1
f 44/38/1 45/35/1 19/3/1
f 41/39/1 42/40/1 19/3/1
f 42/40/1 43/37/1 19/3/1
f 39/41/1 40/42/1 19/3/1
f 40/42/1 41/39/1 19/3/1
f 37/43/1 38/44/1 18/2/1
f 38/44/1 39/41/1 19/3/1
f 18/2/1 38/44/1 19/3/1
f 35/45/1 36/46/1 18/2/1
f 36/46/1 37/43/1 18/2/1
f 33/47/1 34/48/1 18/2/1
f 34/48/1 35/45/1 18/2/1
f 31/49/1 32/50/1 18/2/1
f 32/50/1 33/47/1 18/2/1
f 29/24/1 30/51/1 18/2/1
f 30/51/1 31/49/1 18/2/1
f 51/52/2 50/53/2 67/6/2
f 50/53/2 49/54/2 67/6/2
f 49/54/2 75/55/2 67/6/2
f 75/55/2 74/56/2 67/6/2
f 74/56/2 73/57/2 67/6/2
f 73/57/2 72/58/2 67/6/2
f 72/58/2 71/59/2 67/6/2
f 71/59/2 70/60/2 67/6/2
f 70/60/2 69/61/2 67/6/2
f 69/61/2 68/62/2 67/6/2
f 67/6/2 96/63/2 95/64/2
f 53/65/2 52/66/2 67/6/2
f 52/66/2 51/52/2 67/6/2
f 55/67/2 54/68/2 66/5/2
f 54/68/2 53/65/2 66/5/2
f 57/69/2 56/70/2 66/5/2
f 56/70/2 55/67/2 66/5/2
f 59/71/2 58/72/2 66/5/2
f 58/72/2 57/69/2 66/5/2
f 61/73/2 60/74/2 66/5/2
f 60/74/2 59/71/2 66/5/2
f 63/75/2 62/76/2 66/5/2
f 62/76/2 61/73/2 66/5/2
f 65/77/2 64/78/2 66/5/2
f 64/78/2 63/75/2 66/5/2
f 77/79/2 76/80/2 66/5/2
f 66/5/2 53/65/2 67/6/2
f 67/6/2 95/64/2 94/81/2
f 78/82/2 77/79/2 66/5/2
f 80/83/2 79/84/2 66/5/2
f 79/84/2 78/82/2 66/5/2
f 82/85/2 81/86/2 66/5/2
f 81/86/2 80/83/2 66/5/2
f 84/87/2 83/88/2 66/5/2
f 83/88/2 82/85/2 66/5/2
f 86/4/2 85/89/2 66/5/2
f 85/89/2 84/87/2 66/5/2
f 88/90/2 87/91/2 67/6/2
f 87/91/2 86/4/2 67/6/2
f 90/92/2 89/93/2 67/6/2
f 89/93/2 88/90/2 67/6/2
f 92/94/2 91/95/2 67/6/2
f 91/95/2 90/92/2 67/6/2
f 94/81/2 93/96/2 67/6/2
f 93/96/2 92/94/2 67/6/2
