# Blender v2.83.0 OBJ File: 'puddle_1.blend'
# www.blender.org
mtllib puddle_1_collider.mtl
o Circle.001
v 0.000000 0.000000 -1.548955
v -1.095276 0.000000 -1.095276
v -1.548955 0.000000 0.000000
v -1.095276 0.000000 1.095276
v 0.000000 0.000000 1.548955
v 1.095276 0.000000 1.095276
v 1.548955 0.000000 -0.000000
v 1.095276 0.000000 -1.095276
v -1.095276 -0.110910 -1.095276
v 0.000000 -0.110910 -1.548955
v -1.548955 -0.110910 0.000000
v -1.095276 -0.110910 1.095276
v 0.000000 -0.110910 1.548955
v 1.095276 -0.110910 1.095276
v 1.548955 -0.110910 -0.000000
v 1.095276 -0.110910 -1.095276
v 1.159231 -0.000000 0.217832
v 0.441446 -0.000000 0.515148
v 0.144130 -0.000000 1.232933
v 0.441446 -0.000000 1.950718
v 1.159231 -0.000000 2.248034
v 1.877016 -0.000000 1.950717
v 2.174332 -0.000000 1.232933
v 1.877016 -0.000000 0.515148
v 0.441446 -0.110910 0.515148
v 1.159231 -0.110910 0.217832
v 0.144130 -0.110910 1.232933
v 0.441446 -0.110910 1.950718
v 1.159231 -0.110910 2.248034
v 1.877016 -0.110910 1.950717
v 2.174332 -0.110910 1.232933
v 1.877016 -0.110910 0.515148
vt 0.000000 0.000000
vt 0.000000 0.000000
vt 0.000000 0.000000
vt 0.000000 0.000000
vt 0.000000 0.000000
vt 0.000000 0.000000
vt 0.000000 0.000000
vt 0.000000 0.000000
vt 0.000000 0.000000
vt 0.000000 0.000000
vt 0.000000 0.000000
vt 0.000000 0.000000
vt 0.000000 0.000000
vt 0.000000 0.000000
vt 0.000000 0.000000
vt 0.000000 0.000000
vt 0.000000 0.000000
vt 0.000000 0.000000
vt 0.000000 0.000000
vt 0.000000 0.000000
vt 0.000000 0.000000
vt 0.000000 0.000000
vt 0.000000 0.000000
vt 0.000000 0.000000
vt 0.000000 0.000000
vt 0.000000 0.000000
vt 0.000000 0.000000
vt 0.000000 0.000000
vt 0.000000 0.000000
vt 0.000000 0.000000
vt 0.000000 0.000000
vt 0.000000 0.000000
vn 0.0000 -1.0000 0.0000
vn 0.0000 1.0000 0.0000
vn -0.3827 0.0000 0.9239
vn -0.9239 0.0000 -0.3827
vn 0.3827 0.0000 -0.9239
vn 0.9239 0.0000 0.3827
vn -0.9239 0.0000 0.3827
vn -0.3827 0.0000 -0.9239
vn 0.9239 0.0000 -0.3827
vn 0.3827 0.0000 0.9239
usemtl None
s off
f 3/1/1 1/2/1 7/3/1
f 10/4/2 11/5/2 13/6/2
f 1/2/3 16/7/3 8/8/3
f 7/3/4 14/9/4 6/10/4
f 5/11/5 12/12/5 4/13/5
f 3/1/6 9/14/6 2/15/6
f 8/8/7 15/16/7 7/3/7
f 6/10/8 13/6/8 5/11/8
f 4/13/9 11/5/9 3/1/9
f 2/15/10 10/4/10 1/2/10
f 23/17/1 21/18/1 19/19/1
f 26/20/2 27/21/2 29/22/2
f 17/23/3 32/24/3 24/25/3
f 23/17/4 30/26/4 22/27/4
f 21/18/5 28/28/5 20/29/5
f 19/19/6 25/30/6 18/31/6
f 24/25/7 31/32/7 23/17/7
f 22/27/8 29/22/8 21/18/8
f 20/29/9 27/21/9 19/19/9
f 18/31/10 26/20/10 17/23/10
f 3/1/1 2/15/1 1/2/1
f 1/2/1 8/8/1 7/3/1
f 7/3/1 6/10/1 5/11/1
f 5/11/1 4/13/1 7/3/1
f 4/13/1 3/1/1 7/3/1
f 10/4/2 9/14/2 11/5/2
f 11/5/2 12/12/2 13/6/2
f 13/6/2 14/9/2 15/16/2
f 15/16/2 16/7/2 13/6/2
f 16/7/2 10/4/2 13/6/2
f 1/2/3 10/4/3 16/7/3
f 7/3/4 15/16/4 14/9/4
f 5/11/5 13/6/5 12/12/5
f 3/1/6 11/5/6 9/14/6
f 8/8/7 16/7/7 15/16/7
f 6/10/8 14/9/8 13/6/8
f 4/13/9 12/12/9 11/5/9
f 2/15/10 9/14/10 10/4/10
f 19/19/1 18/31/1 17/23/1
f 17/23/1 24/25/1 23/17/1
f 23/17/1 22/27/1 21/18/1
f 21/18/1 20/29/1 19/19/1
f 19/19/1 17/23/1 23/17/1
f 26/20/2 25/30/2 27/21/2
f 27/21/2 28/28/2 29/22/2
f 29/22/2 30/26/2 31/32/2
f 31/32/2 32/24/2 29/22/2
f 32/24/2 26/20/2 29/22/2
f 17/23/3 26/20/3 32/24/3
f 23/17/4 31/32/4 30/26/4
f 21/18/5 29/22/5 28/28/5
f 19/19/6 27/21/6 25/30/6
f 24/25/7 32/24/7 31/32/7
f 22/27/8 30/26/8 29/22/8
f 20/29/9 28/28/9 27/21/9
f 18/31/10 25/30/10 26/20/10
